<svg width="14" height="14" viewBox="0 0 14 14" fill="none" xmlns="http://www.w3.org/2000/svg">
<path d="M13.8633 5.6293H13.2994V5.60026H6.99971V8.40014H10.9556C10.3785 10.03 8.82768 11.2 6.99971 11.2C4.68036 11.2 2.79988 9.31955 2.79988 7.0002C2.79988 4.68084 4.68036 2.80037 6.99971 2.80037C8.07031 2.80037 9.04432 3.20425 9.78594 3.86398L11.7658 1.88411C10.5157 0.719008 8.84343 0.000488281 6.99971 0.000488281C3.13412 0.000488281 0 3.13461 0 7.0002C0 10.8658 3.13412 13.9999 6.99971 13.9999C10.8653 13.9999 13.9994 10.8658 13.9994 7.0002C13.9994 6.53087 13.9511 6.07274 13.8633 5.6293Z" fill="#FFC107"/>
<path d="M0.806885 3.74218L3.10664 5.42876C3.72891 3.88813 5.23595 2.80037 6.99953 2.80037C8.07013 2.80037 9.04414 3.20425 9.78576 3.86398L11.7656 1.88411C10.5155 0.719008 8.84325 0.000488281 6.99953 0.000488281C4.31094 0.000488281 1.97934 1.51837 0.806885 3.74218Z" fill="#FF3D00"/>
<path d="M6.9998 13.9998C8.80783 13.9998 10.4507 13.3079 11.6928 12.1827L9.52635 10.3495C8.80009 10.9021 7.91242 11.2009 6.9998 11.1999C5.17918 11.1999 3.63329 10.039 3.05092 8.41895L0.768311 10.1776C1.92676 12.4445 4.27936 13.9998 6.9998 13.9998Z" fill="#4CAF50"/>
<path d="M13.8633 5.62915H13.2995V5.6001H6.99976V8.39998H10.9556C10.6796 9.17569 10.1823 9.85353 9.52525 10.3497L9.5263 10.3491L11.6927 12.1823C11.5394 12.3216 13.9995 10.4999 13.9995 7.00004C13.9995 6.53071 13.9512 6.07258 13.8633 5.62915Z" fill="#1976D2"/>
</svg>
